<svg width="133" height="80" viewBox="0 0 133 80" fill="none" xmlns="http://www.w3.org/2000/svg">
<g clip-path="url(#clip0_934_21)">
<path d="M66.4935 0C48.7619 0 37.6797 8.8658 33.2468 26.5974C39.8961 17.7316 47.6537 14.4069 56.5195 16.6234C61.5779 17.888 65.1934 21.5577 69.1954 25.6199C75.7147 32.2373 83.26 39.8961 99.7403 39.8961C117.472 39.8961 128.554 31.0303 132.987 13.2987C126.338 22.1645 118.58 25.4892 109.714 23.2727C104.656 22.0081 101.04 18.3384 97.0384 14.2762C90.5191 7.65882 82.9738 0 66.4935 0ZM33.2468 39.8961C15.5152 39.8961 4.4329 48.7619 0 66.4935C6.64935 57.6277 14.4069 54.303 23.2727 56.5195C28.3312 57.7841 31.9467 61.4538 35.9486 65.5161C42.4679 72.1334 50.0132 79.7922 66.4935 79.7922C84.2251 79.7922 95.3074 70.9264 99.7403 53.1948C93.0909 62.0606 85.3333 65.3853 76.4675 63.1688C71.4091 61.9042 67.7936 58.2345 63.7917 54.1723C57.2723 47.5549 49.727 39.8961 33.2468 39.8961Z" fill="url(#paint0_linear_934_21)"/>
</g>
<defs>
<linearGradient id="paint0_linear_934_21" x1="-369.408" y1="2553.35" x2="11116.2" y2="9175.68" gradientUnits="userSpaceOnUse">
<stop stop-color="#2298BD"/>
<stop offset="1" stop-color="#0ED7B5"/>
</linearGradient>
<clipPath id="clip0_934_21">
<rect width="132.987" height="80" fill="white"/>
</clipPath>
</defs>
</svg>
