<svg xmlns="http://www.w3.org/2000/svg" width="512px" height="16" viewBox="0 0 200 181" version="1.1" preserveAspectRatio="xMidYMid">
    <title>Zig</title>
    <g>
        <path d="M193.890432,0 L91.0341429,122.797273 L149.941934,122.797273 L125.382479,151.234537 L67.2153497,151.234537 L3.87780863,180.964403 L106.935743,56.8745266 L47.8263065,56.8745266 L72.3857612,28.4372633 L130.552891,28.4372633 L193.890432,0 Z M59.4597324,28.4372633 L36.1928806,56.8745266 L28.4372633,56.8745266 L28.4372633,122.797273 L40.0706892,122.797273 L15.5112345,151.234537 L0,151.234537 L0,28.4372633 L59.4597324,28.4372633 Z M197.76824,28.4372633 L197.76824,151.234537 L137.015905,151.234537 L161.57536,122.797273 L169.330977,122.797273 L169.330977,58.1671295 L157.697551,58.1671295 L182.257006,28.4372633 L197.76824,28.4372633 Z" fill="#F7A41D"/>
    </g>
</svg>